<svg fill="#CCD6F6" xmlns="http://www.w3.org/2000/svg"  viewBox="0 0 80 80" width="80px" height="80px"><path d="M 41.033203 7.4550781 C 35.89769 7.4550781 31.935166 8.4928234 29.193359 10.5 C 28.692066 10.866979 28.250123 11.277985 27.837891 11.708984 C 26.360224 10.817332 24.594022 10.455078 22.908203 10.455078 L 5.0332031 10.455078 A 1.0001 1.0001 0 0 0 4.2675781 12.097656 C 4.2675781 12.097656 12.461471 22.073966 23.058594 23.816406 C 22.72085 24.468873 22.523842 25.225315 22.365234 26.046875 C 22.066418 27.594697 21.965404 29.384347 21.929688 30.980469 C 19.567449 33.410837 17.541278 37.021562 16.005859 40.162109 L 15.755859 40.068359 C 14.317202 39.530212 12.688058 40.272051 12.148438 41.708984 L 10.751953 45.435547 C 10.213806 46.874205 10.954812 48.504578 12.392578 49.042969 L 14.066406 49.669922 C 13.699913 50.471259 13.358427 51.427431 13.265625 52.460938 C 13.197065 53.224505 13.271125 54.042837 13.640625 54.806641 C 14.010153 55.570445 14.683855 56.238076 15.611328 56.673828 C 17.148859 57.396194 18.644004 57.187881 19.759766 56.570312 L 17.451172 66.402344 L 17.445312 66.453125 C 17.144513 68.755068 18.54304 70.97053 20.773438 71.650391 C 24.610772 72.820132 33.158996 74.455078 40.783203 74.455078 C 48.40741 74.455078 56.955442 72.819743 60.792969 71.652344 C 63.022067 70.972494 64.423816 68.75804 64.123047 66.455078 L 64.115234 66.404297 L 61.806641 56.570312 C 62.922614 57.187253 64.418221 57.395877 65.955078 56.673828 C 66.882551 56.238076 67.556253 55.570445 67.925781 54.806641 C 68.295309 54.042837 68.369344 53.224504 68.300781 52.460938 C 68.20798 51.427431 67.865119 50.471259 67.498047 49.669922 L 69.171875 49.042969 C 70.61063 48.504785 71.352381 46.873618 70.814453 45.435547 L 69.417969 41.708984 C 68.878348 40.272051 67.249205 39.530212 65.810547 40.068359 L 65.560547 40.162109 C 64.025128 37.021562 61.998957 33.410837 59.636719 30.980469 C 59.601002 29.384347 59.499989 27.594697 59.201172 26.046875 C 59.043751 25.231463 58.8468 24.481147 58.513672 23.832031 C 69.365067 22.136197 77.792969 12.107422 77.792969 12.107422 A 1.0001 1.0001 0 0 0 77.033203 10.455078 L 58.773438 10.455078 C 57.17105 10.455078 55.496677 10.763161 54.056641 11.527344 C 53.691333 11.164057 53.304166 10.815607 52.873047 10.5 C 50.13124 8.4928234 46.168717 7.4550781 41.033203 7.4550781 z M 41.033203 9.4550781 C 45.89669 9.4550781 49.432963 10.459958 51.691406 12.113281 C 53.949849 13.766605 55.033203 16.033752 55.033203 19.017578 C 55.033203 20.554687 54.63284 21.912428 53.945312 23.113281 C 51.255908 24.647335 48.722028 26.955078 40.783203 26.955078 C 33.265552 26.955078 30.59668 24.891717 28.050781 23.369141 L 28.205078 23.275391 C 27.4596 22.035016 27.033203 20.622559 27.033203 19.017578 C 27.033203 16.033752 28.116557 13.766605 30.375 12.113281 C 32.633443 10.459958 36.169717 9.4550781 41.033203 9.4550781 z M 7.3632812 12.455078 L 22.908203 12.455078 C 24.216661 12.455078 25.536594 12.734666 26.591797 13.298828 C 26.134399 14.03429 25.783274 14.831122 25.527344 15.673828 L 25.380859 15.517578 L 25.033203 15.455078 L 24.232422 15.857422 L 24.074219 16.740234 L 24.685547 17.394531 L 25.033203 17.455078 L 25.152344 17.394531 C 25.081054 17.923931 25.033203 18.461538 25.033203 19.017578 C 25.033203 20.085813 25.203486 21.096779 25.496094 22.048828 C 19.482858 21.793593 13.920653 18.159378 10.259766 15.09375 L 10.28125 15.083984 L 10.439453 14.203125 L 9.8261719 13.548828 L 9.4804688 13.486328 L 8.8027344 13.824219 C 8.2557782 13.324813 7.7680066 12.858988 7.3632812 12.455078 z M 58.773438 12.455078 L 74.667969 12.455078 C 74.253153 12.86029 73.753305 13.327823 73.193359 13.828125 L 72.933594 13.548828 L 72.585938 13.486328 L 71.785156 13.886719 L 71.626953 14.769531 L 71.832031 14.988281 C 68.18164 18.003303 62.629746 21.614387 56.578125 22.027344 C 56.866537 21.081535 57.033203 20.077226 57.033203 19.017578 C 57.033203 18.476007 56.987559 17.951898 56.919922 17.435547 L 57.033203 17.455078 L 57.833984 17.054688 L 57.992188 16.171875 L 57.380859 15.517578 L 57.033203 15.455078 L 56.546875 15.699219 C 56.27074 14.781641 55.887341 13.914898 55.373047 13.125 C 56.385314 12.680277 57.583692 12.455078 58.773438 12.455078 z M 13.470703 13.751953 L 12.669922 14.152344 L 12.511719 15.035156 L 13.123047 15.689453 L 13.470703 15.751953 L 14.271484 15.349609 L 14.429688 14.46875 L 13.818359 13.814453 L 13.470703 13.751953 z M 68.595703 13.751953 L 67.794922 14.152344 L 67.636719 15.035156 L 68.248047 15.689453 L 68.595703 15.751953 L 69.396484 15.349609 L 69.554688 14.46875 L 68.941406 13.814453 L 68.595703 13.751953 z M 17.460938 14.017578 L 16.660156 14.419922 L 16.501953 15.300781 L 17.115234 15.955078 L 17.460938 16.017578 L 18.263672 15.617188 L 18.419922 14.734375 L 17.808594 14.080078 L 17.460938 14.017578 z M 64.603516 14.017578 L 63.802734 14.419922 L 63.644531 15.300781 L 64.257812 15.955078 L 64.603516 16.017578 L 65.40625 15.617188 L 65.5625 14.734375 L 64.951172 14.080078 L 64.603516 14.017578 z M 21.453125 14.283203 L 20.652344 14.685547 L 20.494141 15.568359 L 21.105469 16.222656 L 21.453125 16.283203 L 22.253906 15.882812 L 22.412109 15 L 21.800781 14.345703 L 21.453125 14.283203 z M 60.613281 14.283203 L 59.8125 14.685547 L 59.654297 15.568359 L 60.265625 16.222656 L 60.613281 16.283203 L 61.414062 15.882812 L 61.572266 15 L 60.960938 14.345703 L 60.613281 14.283203 z M 34.240234 16.457031 C 32.312567 16.504269 30.361516 17.414047 29.517578 19.029297 C 29.517578 20.876297 35.302203 24.569953 39.158203 20.876953 C 39.158203 17.761266 36.718664 16.396297 34.240234 16.457031 z M 47.142578 16.457031 C 44.567743 16.396297 42.033203 17.761266 42.033203 20.876953 C 46.039203 24.569953 52.048828 20.876297 52.048828 19.029297 C 51.172078 17.414047 49.145228 16.504269 47.142578 16.457031 z M 39.158203 23.080078 C 39.158203 23.977078 39.886203 24.705078 40.783203 24.705078 C 41.680203 24.705078 42.408203 23.977078 42.408203 23.080078 L 39.158203 23.080078 z M 25.308594 24.222656 C 25.345366 24.226084 25.402526 24.240127 25.496094 24.279297 L 25.498047 24.279297 L 25.5 24.28125 C 28.021118 25.326215 31.071359 28.955078 40.783203 28.955078 C 42.030483 28.955078 43.16456 28.893657 44.205078 28.787109 C 44.055638 29.776576 43.752234 31.321994 43.087891 32.890625 C 42.558522 34.140554 41.819906 35.32922 40.853516 36.138672 C 39.887125 36.948123 38.722368 37.423378 37.068359 37.294922 L 37.068359 37.298828 C 35.563643 37.177607 33.820978 37.003528 32.011719 36.699219 C 29.825299 36.331472 27.652208 35.791247 26.125 35.076172 C 25.361396 34.718634 24.767344 34.31739 24.40625 33.931641 C 24.045156 33.545891 23.908203 33.222701 23.908203 32.830078 C 23.908203 30.952838 23.961983 28.322314 24.328125 26.425781 C 24.511194 25.477515 24.802035 24.721187 25.033203 24.417969 C 25.148787 24.26636 25.215687 24.238539 25.242188 24.230469 C 25.255437 24.226419 25.271822 24.219229 25.308594 24.222656 z M 56.255859 24.222656 C 56.292144 24.219231 56.309015 24.226434 56.322266 24.230469 C 56.348766 24.238569 56.417616 24.266359 56.533203 24.417969 C 56.764371 24.721187 57.053259 25.477515 57.236328 26.425781 C 57.602466 28.322314 57.658203 30.952838 57.658203 32.830078 C 57.658203 33.222524 57.521247 33.545945 57.160156 33.931641 C 56.799065 34.317336 56.205022 34.71865 55.441406 35.076172 C 53.914175 35.791215 51.741117 36.331409 49.554688 36.699219 C 46.464846 37.219003 43.947303 37.370465 42.392578 37.439453 C 43.55893 36.37214 44.361471 35.013532 44.929688 33.671875 C 45.822758 31.563181 46.155839 29.470137 46.273438 28.488281 C 51.795575 27.477639 54.099664 25.096435 56.066406 24.28125 L 56.068359 24.279297 L 56.070312 24.279297 C 56.163878 24.240132 56.219575 24.226081 56.255859 24.222656 z M 22.091797 33.853516 C 22.269477 34.393461 22.561217 34.888507 22.945312 35.298828 C 23.372922 35.755634 23.895129 36.134688 24.476562 36.46875 L 22.996094 42.779297 L 17.892578 40.869141 C 19.069895 38.493863 20.531921 35.882516 22.091797 33.853516 z M 59.474609 33.853516 C 61.034485 35.882516 62.496511 38.493863 63.673828 40.869141 L 58.570312 42.779297 L 57.087891 36.466797 C 57.669128 36.133165 58.191301 35.755821 58.619141 35.298828 C 59.003307 34.888484 59.296373 34.393597 59.474609 33.853516 z M 55.232422 37.314453 L 62.136719 66.720703 C 62.309454 68.074532 61.507113 69.342963 60.210938 69.738281 C 57.502016 70.562352 51.835051 71.713893 46.033203 72.208984 L 46.033203 71.455078 A 1.0001 1.0001 0 0 0 45.017578 70.441406 A 1.0001 1.0001 0 0 0 44.033203 71.455078 L 44.033203 72.349609 C 42.937029 72.411966 41.846663 72.455078 40.783203 72.455078 C 39.881466 72.455078 38.960544 72.430347 38.033203 72.384766 L 38.033203 71.455078 A 1.0001 1.0001 0 0 0 37.017578 70.441406 A 1.0001 1.0001 0 0 0 36.033203 71.455078 L 36.033203 72.244141 C 30.059302 71.774701 24.142709 70.585373 21.357422 69.736328 C 20.062486 69.341611 19.26016 68.075189 19.429688 66.724609 L 26.333984 37.316406 C 27.953089 37.926748 29.813446 38.357981 31.679688 38.671875 C 33.227025 38.932131 34.697603 39.092895 36.060547 39.21875 A 1.0001 1.0001 0 0 0 36.033203 39.455078 L 36.033203 40.455078 A 1.0001 1.0001 0 1 0 38.033203 40.455078 L 38.033203 39.455078 A 1.0001 1.0001 0 0 0 38.03125 39.388672 C 39.664927 39.497448 40.765625 39.519531 40.765625 39.519531 L 40.783203 39.519531 L 40.800781 39.519531 C 40.800781 39.519531 42.134075 39.486076 44.033203 39.347656 L 44.033203 40.455078 A 1.0001 1.0001 0 1 0 46.033203 40.455078 L 46.033203 39.173828 C 47.252772 39.051606 48.546276 38.897371 49.886719 38.671875 C 51.752952 38.35793 53.613323 37.925239 55.232422 37.314453 z M 14.734375 41.886719 C 14.838923 41.883448 14.947852 41.901443 15.054688 41.941406 L 22.535156 44.742188 L 21.248047 50.224609 L 13.095703 47.169922 L 13.09375 47.169922 C 12.667564 47.010313 12.465147 46.564061 12.625 46.136719 L 14.019531 42.412109 C 14.139816 42.09181 14.420731 41.896531 14.734375 41.886719 z M 66.830078 41.886719 C 67.143173 41.896532 67.424638 42.091812 67.544922 42.412109 L 68.941406 46.136719 C 69.101478 46.564648 68.897946 47.010106 68.470703 47.169922 L 60.318359 50.224609 L 59.03125 44.742188 L 66.511719 41.941406 C 66.618554 41.901443 66.725713 41.883448 66.830078 41.886719 z M 37.033203 42.455078 L 36.232422 42.857422 L 36.074219 43.740234 L 36.685547 44.394531 L 37.033203 44.455078 L 37.833984 44.054688 L 37.992188 43.171875 L 37.380859 42.517578 L 37.033203 42.455078 z M 45.033203 42.455078 L 44.232422 42.857422 L 44.074219 43.740234 L 44.685547 44.394531 L 45.033203 44.455078 L 45.833984 44.054688 L 45.992188 43.171875 L 45.380859 42.517578 L 45.033203 42.455078 z M 37.033203 46.455078 L 36.232422 46.857422 L 36.074219 47.740234 L 36.685547 48.394531 L 37.033203 48.455078 L 37.833984 48.054688 L 37.992188 47.171875 L 37.380859 46.517578 L 37.033203 46.455078 z M 45.033203 46.455078 L 44.232422 46.857422 L 44.074219 47.740234 L 44.685547 48.394531 L 45.033203 48.455078 L 45.833984 48.054688 L 45.992188 47.171875 L 45.380859 46.517578 L 45.033203 46.455078 z M 15.947266 50.375 L 20.787109 52.189453 L 20.681641 52.636719 C 20.311868 53.318786 19.724622 54.171811 19.037109 54.666016 C 18.317768 55.183099 17.625071 55.410217 16.460938 54.863281 C 15.88041 54.590534 15.610816 54.285712 15.441406 53.935547 C 15.271997 53.585382 15.212125 53.147479 15.257812 52.638672 C 15.323253 51.909924 15.622491 51.079214 15.947266 50.375 z M 65.619141 50.375 C 65.943917 51.079214 66.243157 51.909924 66.308594 52.638672 C 66.354284 53.147479 66.294414 53.585382 66.125 53.935547 C 65.95559 54.285712 65.685995 54.590534 65.105469 54.863281 C 63.941335 55.410217 63.248638 55.183099 62.529297 54.666016 C 61.84028 54.17073 61.250458 53.315602 60.880859 52.632812 L 60.777344 52.1875 L 65.619141 50.375 z M 37.033203 50.455078 L 36.232422 50.857422 L 36.074219 51.740234 L 36.685547 52.394531 L 37.033203 52.455078 L 37.833984 52.054688 L 37.992188 51.171875 L 37.380859 50.517578 L 37.033203 50.455078 z M 45.033203 50.455078 L 44.232422 50.857422 L 44.074219 51.740234 L 44.685547 52.394531 L 45.033203 52.455078 L 45.833984 52.054688 L 45.992188 51.171875 L 45.380859 50.517578 L 45.033203 50.455078 z M 37.033203 54.455078 L 36.232422 54.857422 L 36.074219 55.740234 L 36.685547 56.394531 L 37.033203 56.455078 L 37.833984 56.054688 L 37.992188 55.171875 L 37.380859 54.517578 L 37.033203 54.455078 z M 45.033203 54.455078 L 44.232422 54.857422 L 44.074219 55.740234 L 44.685547 56.394531 L 45.033203 56.455078 L 45.833984 56.054688 L 45.992188 55.171875 L 45.380859 54.517578 L 45.033203 54.455078 z M 37.033203 58.455078 L 36.232422 58.857422 L 36.074219 59.740234 L 36.685547 60.394531 L 37.033203 60.455078 L 37.833984 60.054688 L 37.992188 59.171875 L 37.380859 58.517578 L 37.033203 58.455078 z M 45.033203 58.455078 L 44.232422 58.857422 L 44.074219 59.740234 L 44.685547 60.394531 L 45.033203 60.455078 L 45.833984 60.054688 L 45.992188 59.171875 L 45.380859 58.517578 L 45.033203 58.455078 z M 37.033203 62.455078 L 36.232422 62.857422 L 36.074219 63.740234 L 36.685547 64.394531 L 37.033203 64.455078 L 37.833984 64.054688 L 37.992188 63.171875 L 37.380859 62.517578 L 37.033203 62.455078 z M 45.033203 62.455078 L 44.232422 62.857422 L 44.074219 63.740234 L 44.685547 64.394531 L 45.033203 64.455078 L 45.833984 64.054688 L 45.992188 63.171875 L 45.380859 62.517578 L 45.033203 62.455078 z M 37.033203 66.455078 L 36.232422 66.857422 L 36.074219 67.740234 L 36.685547 68.394531 L 37.033203 68.455078 L 37.833984 68.054688 L 37.992188 67.171875 L 37.380859 66.517578 L 37.033203 66.455078 z M 45.033203 66.455078 L 44.232422 66.857422 L 44.074219 67.740234 L 44.685547 68.394531 L 45.033203 68.455078 L 45.833984 68.054688 L 45.992188 67.171875 L 45.380859 66.517578 L 45.033203 66.455078 z"/></svg>
